<svg id="Layer_1" data-name="logo" xmlns="http://www.w3.org/2000/svg" viewBox="0 0 827.99 307.71"><defs><style>.cls-1{fill:red;}.cls-2,.cls-3{fill:#f7f7f7;}.cls-3{font-size:230px;font-family:Verdana-BoldItalic, Verdana;font-weight:700;font-style:italic;}</style></defs><path class="cls-1" d="M233.17,355.15A26,26,0,0,1,271.39,379c.06,4.21-1.81,8-3,12,.28,1.09,1.24,1.81,1.94,2.64,13.74,13.59,27,27.63,40.8,41.17,6.68-2.61,14.33-4,21.15-1.09,2.14.52,4.48,2.95,6.55,1.07,21.4-16.33,43-32.45,64.28-48.93-.61-6.32-1.25-13.07,1.83-18.91a26,26,0,0,1,45.62-2.51c6.22,9.7,4.74,23.55-3.45,31.67A26.1,26.1,0,0,1,421,403c-2.7-.78-5.05-2.66-7.85-3-8.48,5.8-16.37,12.45-24.69,18.49-13.34,10.35-27,20.24-40.25,30.74,1.07,5.33,1.89,10.94.17,16.23A26.11,26.11,0,0,1,323,484c-12.29.1-23.62-9.9-25.2-22.06-.88-5,.5-10,1.46-14.82-13.22-13.57-26.61-27-39.85-40.55-1.42-1.47-2.93-2.86-4.48-4.19a29.33,29.33,0,0,1-21.8-1.21c-16.45,18.19-32.44,36.81-48.82,55.08-1.22,1.48-3.2,3.2-2,5.3,3,7.5,2.84,16.34-1.31,23.39-6.17,11.2-21.21,16.33-32.87,10.94A26.06,26.06,0,0,1,132.8,468c1.49-11.16,11.19-20.5,22.36-21.73,4.64-.71,9.24.5,13.72,1.6,13.13-14.21,25.64-29,38.56-43.41,4.43-5.32,9.43-10.17,13.57-15.71-.24-3.95-1.81-7.76-1.48-11.76A25.81,25.81,0,0,1,233.17,355.15Z" transform="translate(-132.44 -352.08)"/><path class="cls-2" d="M192.66,492.66a66.69,66.69,0,0,1,28.52-16.29c6.47-.65,13.18-.9,19.56.61-3.92,6.93-8.28,13.6-12.13,20.57-2.68-1.13-5.38-2.93-8.42-2.38a16.16,16.16,0,0,0-10.79,7.31,117.34,117.34,0,0,0-9.34,15.32c5.35.38,10.71,0,16.06.34-3.57,6.7-7.75,13.05-11.55,19.62-5.63.89-11.45-.53-17,.79-9.61,15.44-18.72,31.23-28.2,46.76-1,2-3.46,1.65-5.33,1.77-7-.06-13.9,0-20.86-.08,9.11-14.61,17.7-29.54,26.72-44.2a47,47,0,0,0,2.36-4.57c-2.74-.19-5.49-.32-8.23-.49,2.9-5.3,6.28-10.31,9.2-15.6.91-1.33,1.52-3.06,3-3.87,2.84-.38,5.71-.31,8.57-.46C179.94,508.9,185.09,499.8,192.66,492.66Z" transform="translate(-132.44 -352.08)"/><path class="cls-2" d="M391.18,497.09c8.23-.23,16.47,0,24.71-.09-4.18,6.88-8.62,13.64-12.13,20.9,4.4.15,8.81,0,13.2.32-3.74,6.46-7.46,13-11.54,19.2-4.5,1.36-9.41.17-14.06.78-10.07,16.09-19.27,32.74-29.58,48.67-8.24.37-16.49.11-24.73.14,9.74-16.25,19.74-32.36,29.14-48.81-2.42-.15-4.83-.26-7.24-.4,3.59-6.64,7.7-13,11.5-19.49,2.73-.23,5.48-.4,8.22-.53C382.91,510.93,386.38,503.58,391.18,497.09Z" transform="translate(-132.44 -352.08)"/><path class="cls-2" d="M228.27,523.27c10.59-5.51,23.3-9.76,35.09-5.63,3.21.91,4.9,4,6.82,6.43a59.16,59.16,0,0,0,4.07-5.88c8.33-.39,16.69-.24,25-.06C294.71,527,289,535.32,284.07,544c-8,13.34-16.06,26.63-24,40-.92,1.48-2.08,3.31-4.11,3-7.66.11-15.32,0-23,0,1.07-2,2.07-4,3-6-4.69,2.45-9.23,5.26-14.4,6.62a26.3,26.3,0,0,1-17.22,1.82c-5-2.24-10.42-5.1-12.41-10.54-3.23-7-.61-14.81,2.48-21.34A77.94,77.94,0,0,1,228.27,523.27Zm15.09,15.21c-8.91,2.33-17.29,8.25-21.16,16.79-1.55,3.41-1.14,8.1,2.21,10.32s7.86,1.3,11.62.5c8.84-2.52,16.8-9,20.12-17.72a8,8,0,0,0-2.61-9A15.31,15.31,0,0,0,243.36,538.48Z" transform="translate(-132.44 -352.08)"/><path class="cls-2" d="M297.37,542.49c12.05-22.88,42.74-32.76,66.23-22.64-5.2,5.65-11.17,10.56-16.94,15.6-1.8-.11-3.28-1.53-4.94-2.15-5.24-2.53-12.58-1.46-15.94,3.6a3,3,0,0,0,1.61,4.6c4.6,1.6,10,1.73,13.65,5.39,3.46,3.11,2.87,8.41,1.15,12.26C337.5,569.78,328.32,577.94,318,583c-5.79,3.09-12.34,4.1-18.45,6.32a43.92,43.92,0,0,1-14.47.2c-5.61-2.34-11.68-4.09-16.21-8.34C272,577.87,275.59,575,279,572c3-2.63,5.71-5.61,9.11-7.74,4.28,3.33,9.37,5.75,14.89,5.7,5.06.6,11-2.4,11.79-7.78-4.9-3.65-11.53-3.12-16.54-6.42C293.88,552.6,295,546.49,297.37,542.49Z" transform="translate(-132.44 -352.08)"/><text class="cls-3" transform="translate(299.38 237.97)">GQL</text></svg>