<?xml version="1.0" encoding="utf-8"?>
<!-- Generator: Adobe Illustrator 26.0.1, SVG Export Plug-In . SVG Version: 6.00 Build 0)  -->
<svg version="1.1" id="Layer_1" xmlns="http://www.w3.org/2000/svg" xmlns:xlink="http://www.w3.org/1999/xlink" x="0px" y="0px"
	 viewBox="280 139 465 489" style="enable-background:new 0 0 1024 768;" xml:space="preserve">
<style type="text/css">
	.st0{fill:url(#SVGID_1_);}
</style>
<g>
	<g>
		<linearGradient id="SVGID_1_" gradientUnits="userSpaceOnUse" x1="584.8727" y1="440.6407" x2="730.5455" y2="577.0642">
			<stop  offset="1.400000e-07" style="stop-color:#F15A29"/>
			<stop  offset="1" style="stop-color:#DE0B00"/>
		</linearGradient>
		<path class="st0" d="M735.34,583.73l-0.01-68.88h-22.82c-18.38,0-36-7.3-49-20.29l-9.02-9.03c-12.99-12.99-20.3-30.62-20.3-48.99
			h-46.05v46.04c18.38,0,36.01,7.3,49,20.3l9.02,9.02c13,13,20.3,30.64,20.29,49.02l0,22.82H735.34z"/>
		<path d="M631.4,526.67l-9.16-8.9c-6.54-6.54-14.91-11.25-23.8-13.08l-67.63,39.08c-7.14-4.6-15.59-7.34-24.72-7.34
			c-9.12,0-17.57,2.74-24.7,7.33l-101.27-58.55c0-0.28,0.08-0.53,0.08-0.82c0-17.67-10.12-32.83-24.79-40.46v-118
			c14.66-7.63,24.79-22.79,24.79-40.46c0-0.92-0.22-1.78-0.27-2.68l101.41-58.63c7.14,4.61,15.61,7.36,24.74,7.36
			c9.14,0,17.6-2.75,24.75-7.36l101.41,58.63c-0.05,0.9-0.27,1.76-0.27,2.68c0,17.67,10.12,32.83,24.79,40.46v121.97
			c1.83,8.63,6.28,16.48,12.55,22.76l8.9,9.16c5.76,5.75,12.82,9.94,20.4,11.77V326.03c14.74-7.6,24.92-22.8,24.92-40.53
			c0-25.28-20.5-45.78-45.78-45.78c-8.93,0-17.2,2.66-24.25,7.09l-101.85-58.95c0.03-0.71,0.21-1.38,0.21-2.1
			c0-25.28-20.5-45.78-45.78-45.78c-25.28,0-45.78,20.49-45.78,45.78c0,0.72,0.18,1.39,0.21,2.1l-101.84,58.95
			c-7.05-4.43-15.32-7.09-24.26-7.09c-25.28,0-45.78,20.49-45.78,45.78c0,17.73,10.18,32.92,24.91,40.53v117.86
			c-14.74,7.61-24.91,22.8-24.91,40.53c0,25.28,20.49,45.78,45.78,45.78c9.57,0,18.44-2.95,25.79-7.98l100.31,57.92
			c-0.03,0.7-0.21,1.37-0.21,2.08c0,25.29,20.49,45.78,45.78,45.78c25.28,0,45.78-20.49,45.78-45.78c0-0.71-0.18-1.38-0.21-2.09
			l83.92-48.48C634.28,529.82,632.97,528.25,631.4,526.67z"/>
	</g>
</g>
</svg>
