<?xml version="1.0" encoding="utf-8"?>
<!-- Generator: Adobe Illustrator 26.0.1, SVG Export Plug-In . SVG Version: 6.00 Build 0)  -->
<svg version="1.1" id="Layer_1" xmlns="http://www.w3.org/2000/svg" xmlns:xlink="http://www.w3.org/1999/xlink" x="0px" y="0px"
	 viewBox="80 285 860 200" style="enable-background:new 80 285 860 200;" xml:space="preserve">
<style type="text/css">
	.st0{fill:url(#SVGID_1_);}
	.st1{fill:url(#SVGID_00000078724193745287286610000003164106135371585932_);}
	.st2{fill:#FFFFFF;}
	.st3{fill:url(#SVGID_00000053503301780899033280000015087220418942817425_);}
	.st4{fill:url(#SVGID_00000119075932081438646700000015310116280567441536_);}
	.st5{fill:url(#SVGID_00000015315463858233533980000004319959341193049005_);}
</style>
<g>
	<g>
		<g>
			<linearGradient id="SVGID_1_" gradientUnits="userSpaceOnUse" x1="84.2367" y1="407.1036" x2="441.4101" y2="407.1036">
				<stop  offset="1.400000e-07" style="stop-color:#F15A29"/>
				<stop  offset="1" style="stop-color:#DE0B00"/>
			</linearGradient>
			<path class="st0" d="M232.58,349.4v13.71c-9.9-10.16-23.09-16.31-37.63-16.31c-30.44,0-55.09,27-55.09,60.31
				c0,33.31,24.65,60.31,55.09,60.31c14.54,0,27.73-6.15,37.63-16.32v12.41h28.36V349.4H232.58z M200.16,438.85
				c-17.93,0-32.47-14.49-32.47-32.42c0-17.93,14.54-32.42,32.47-32.42c17.88,0,32.42,14.49,32.42,32.42
				C232.58,424.36,218.04,438.85,200.16,438.85z"/>
			
				<linearGradient id="SVGID_00000098929019882751466890000005850870572612015004_" gradientUnits="userSpaceOnUse" x1="84.2443" y1="390.7621" x2="441.4102" y2="390.7621">
				<stop  offset="1.400000e-07" style="stop-color:#F15A29"/>
				<stop  offset="1" style="stop-color:#DE0B00"/>
			</linearGradient>
			<path style="fill:url(#SVGID_00000098929019882751466890000005850870572612015004_);" d="M414.29,378.85v33.93
				c0,13.76,11.15,24.91,24.91,24.91l0,0v28.41l0,0c-29.42,0-53.27-23.85-53.27-53.27v-81.78l28.35-15.64v35.08h24.91v3.44
				C439.2,367.7,428.05,378.85,414.29,378.85L414.29,378.85z"/>
			<polygon class="st2" points="942,442.39 942,466.11 827.11,466.11 827.11,301.19 850.82,301.19 850.82,442.39 			"/>
			<path class="st2" d="M624.03,384.33c0,8.24-1.2,16.21-3.44,23.72c-10.22,34.35-42.01,59.37-79.65,59.37
				c-45.92,0-83.14-37.22-83.14-83.09c0-45.92,37.22-83.14,83.14-83.14c35.97,0,66.67,22.93,78.19,54.94h-25.91
				c-10.01-18.61-29.66-31.22-52.28-31.22c-32.84,0-59.42,26.58-59.42,59.42c0,32.79,26.58,59.37,59.42,59.37
				c24.34,0,45.3-14.65,54.42-35.65h-50.99l-15.64-23.72H624.03z"/>
			
				<linearGradient id="SVGID_00000176028175302060302190000017698546718346653322_" gradientUnits="userSpaceOnUse" x1="84.2363" y1="383.6483" x2="441.4044" y2="383.6483">
				<stop  offset="1.400000e-07" style="stop-color:#F15A29"/>
				<stop  offset="1" style="stop-color:#DE0B00"/>
			</linearGradient>
			<path style="fill:url(#SVGID_00000176028175302060302190000017698546718346653322_);" d="M110.36,354.56v5.27h24.97v3.39
				c0,13.79-11.18,24.97-24.97,24.97l0,0v77.92H82v-111.6c0-29.45,23.87-53.32,53.32-53.32l0,0v28.41l0,0
				C121.53,329.59,110.36,340.77,110.36,354.56z"/>
			
				<linearGradient id="SVGID_00000145050445602341807620000016672008682661261460_" gradientUnits="userSpaceOnUse" x1="84.2364" y1="407.1008" x2="441.4096" y2="407.1008">
				<stop  offset="1.400000e-07" style="stop-color:#F15A29"/>
				<stop  offset="1" style="stop-color:#DE0B00"/>
			</linearGradient>
			<path style="fill:url(#SVGID_00000145050445602341807620000016672008682661261460_);" d="M368.46,371.32
				c0,0-11.51-24.54-43.44-24.54s-43.65,20.85-43.65,36.49c0,40.83,58.64,28.89,58.64,49.3c0,11.08-32.25,13.57-37.79-6.84
				l-25.3,14.55c0,0,8.36,27.15,47.56,27.15c36.92,0,45.93-21.61,45.93-37.68c0-40.4-58.85-30.55-58.85-47.4
				c0-13.12,27.05-12.73,31.49,2.23L368.46,371.32z"/>
		</g>
		<g>
			
				<linearGradient id="SVGID_00000114781433494830162190000011516004749865912758_" gradientUnits="userSpaceOnUse" x1="752.2067" y1="407.31" x2="812.1571" y2="463.4539">
				<stop  offset="1.400000e-07" style="stop-color:#F15A29"/>
				<stop  offset="1" style="stop-color:#DE0B00"/>
			</linearGradient>
			<path style="fill:url(#SVGID_00000114781433494830162190000011516004749865912758_);" d="M814.13,466.2l-0.01-28.35h-9.39
				c-7.56,0-14.82-3-20.17-8.35l-3.71-3.72c-5.35-5.35-8.35-12.6-8.35-20.16h-18.95v18.95c7.57,0,14.82,3,20.17,8.35l3.71,3.71
				c5.35,5.35,8.35,12.61,8.35,20.17l0,9.39H814.13z"/>
			<path class="st2" d="M771.36,442.72l-3.77-3.66c-2.69-2.69-6.14-4.63-9.8-5.38l-27.83,16.08c-2.94-1.89-6.42-3.02-10.17-3.02
				c-3.75,0-7.23,1.13-10.17,3.02l-41.68-24.09c0-0.11,0.04-0.22,0.04-0.34c0-7.27-4.17-13.51-10.2-16.65v-48.56
				c6.03-3.14,10.2-9.38,10.2-16.65c0-0.38-0.09-0.73-0.11-1.1l41.74-24.13c2.94,1.9,6.42,3.03,10.18,3.03
				c3.76,0,7.24-1.13,10.18-3.03l41.74,24.13c-0.02,0.37-0.11,0.72-0.11,1.1c0,7.27,4.17,13.51,10.2,16.65v50.2
				c0.75,3.55,2.58,6.78,5.17,9.36l3.66,3.77c2.37,2.37,5.28,4.09,8.4,4.84v-68.15c6.06-3.13,10.25-9.38,10.25-16.68
				c0-10.41-8.44-18.84-18.84-18.84c-3.68,0-7.08,1.1-9.98,2.92l-41.91-24.26c0.01-0.29,0.09-0.57,0.09-0.86
				c0-10.41-8.44-18.84-18.84-18.84c-10.4,0-18.84,8.43-18.84,18.84c0,0.3,0.07,0.57,0.09,0.86l-41.91,24.26
				c-2.9-1.82-6.3-2.92-9.98-2.92c-10.4,0-18.84,8.43-18.84,18.84c0,7.29,4.19,13.55,10.25,16.68v48.51
				c-6.06,3.13-10.25,9.38-10.25,16.68c0,10.41,8.43,18.84,18.84,18.84c3.94,0,7.59-1.21,10.61-3.28l41.28,23.84
				c-0.01,0.29-0.08,0.56-0.08,0.86c0,10.41,8.43,18.84,18.84,18.84c10.41,0,18.84-8.43,18.84-18.84c0-0.29-0.07-0.57-0.09-0.86
				l34.54-19.95C772.54,444.01,772,443.36,771.36,442.72z"/>
		</g>
	</g>
</g>
</svg>
