<?xml version="1.0" encoding="utf-8"?>
<!-- Generator: Adobe Illustrator 26.0.1, SVG Export Plug-In . SVG Version: 6.00 Build 0)  -->
<svg version="1.1" id="Layer_1" xmlns="http://www.w3.org/2000/svg" xmlns:xlink="http://www.w3.org/1999/xlink" x="0px" y="0px"
	 viewBox="80 285 860 200" style="enable-background:new 80 285 860 200;" xml:space="preserve">
<style type="text/css">
	.st0{fill:url(#SVGID_1_);}
	.st1{fill:url(#SVGID_00000059271679991850246600000010065855884889471636_);}
	.st2{fill:url(#SVGID_00000095335032112029970620000001274709049729662600_);}
	.st3{fill:url(#SVGID_00000124162833891858286560000006909533311534111935_);}
	.st4{fill:url(#SVGID_00000143598352469073114220000015318121786110336180_);}
</style>
<g>
	<g>
		<linearGradient id="SVGID_1_" gradientUnits="userSpaceOnUse" x1="95.1787" y1="406.5125" x2="443.2192" y2="406.5125">
			<stop  offset="1.400000e-07" style="stop-color:#F15A29"/>
			<stop  offset="1" style="stop-color:#DE0B00"/>
		</linearGradient>
		<path class="st0" d="M239.73,350.29v13.36c-9.65-9.9-22.5-15.9-36.67-15.9c-29.66,0-53.69,26.31-53.69,58.77
			c0,32.45,24.02,58.76,53.69,58.76c14.17,0,27.02-5.99,36.67-15.9v12.09h27.63V350.29H239.73z M208.14,437.44
			c-17.47,0-31.64-14.12-31.64-31.59c0-17.47,14.17-31.59,31.64-31.59c17.42,0,31.59,14.12,31.59,31.59
			C239.73,423.32,225.56,437.44,208.14,437.44z"/>
		
			<linearGradient id="SVGID_00000113338262361151870020000000603688088152412565_" gradientUnits="userSpaceOnUse" x1="95.1797" y1="390.5891" x2="443.2187" y2="390.5891">
			<stop  offset="1.400000e-07" style="stop-color:#F15A29"/>
			<stop  offset="1" style="stop-color:#DE0B00"/>
		</linearGradient>
		<path style="fill:url(#SVGID_00000113338262361151870020000000603688088152412565_);" d="M416.79,378.98v33.06
			c0,13.41,10.87,24.28,24.28,24.28l0,0v27.68l0,0c-28.67,0-51.91-23.24-51.91-51.91v-79.69l27.63-15.24v34.18h24.28v3.35
			C441.07,368.11,430.2,378.98,416.79,378.98L416.79,378.98z"/>
		<polygon points="931,440.9 931,464.01 819.05,464.01 819.05,303.31 842.16,303.31 842.16,440.9 		"/>
		<path d="M621.17,384.32c0,8.02-1.17,15.8-3.35,23.11c-9.95,33.47-40.94,57.85-77.61,57.85c-44.75,0-81.01-36.27-81.01-80.96
			c0-44.75,36.26-81.01,81.01-81.01c35.04,0,64.96,22.35,76.19,53.53h-25.24c-9.75-18.13-28.9-30.42-50.94-30.42
			c-32,0-57.9,25.9-57.9,57.9c0,31.95,25.9,57.85,57.9,57.85c23.72,0,44.14-14.27,53.03-34.74h-49.68l-15.24-23.11H621.17z"/>
		
			<linearGradient id="SVGID_00000057836989051787526370000014100885904613825458_" gradientUnits="userSpaceOnUse" x1="95.1791" y1="383.6573" x2="443.219" y2="383.6573">
			<stop  offset="1.400000e-07" style="stop-color:#F15A29"/>
			<stop  offset="1" style="stop-color:#DE0B00"/>
		</linearGradient>
		<path style="fill:url(#SVGID_00000057836989051787526370000014100885904613825458_);" d="M120.63,355.32v5.13h24.33v3.3
			c0,13.44-10.89,24.33-24.33,24.33l0,0v75.93H93V355.26c0-28.7,23.26-51.96,51.96-51.96l0,0v27.68l0,0
			C131.52,330.99,120.63,341.88,120.63,355.32z"/>
		
			<linearGradient id="SVGID_00000122000838241418065930000011914357564597740209_" gradientUnits="userSpaceOnUse" x1="95.1775" y1="406.5098" x2="443.219" y2="406.5098">
			<stop  offset="1.400000e-07" style="stop-color:#F15A29"/>
			<stop  offset="1" style="stop-color:#DE0B00"/>
		</linearGradient>
		<path style="fill:url(#SVGID_00000122000838241418065930000011914357564597740209_);" d="M372.14,371.64
			c0,0-11.21-23.91-42.33-23.91c-31.11,0-42.54,20.32-42.54,35.55c0,39.79,57.14,28.15,57.14,48.04c0,10.79-31.43,13.23-36.82-6.67
			l-24.65,14.18c0,0,8.15,26.45,46.35,26.45c35.97,0,44.76-21.06,44.76-36.72c0-39.36-57.35-29.77-57.35-46.19
			c0-12.78,26.36-12.41,30.68,2.17L372.14,371.64z"/>
	</g>
	<g>
		
			<linearGradient id="SVGID_00000122693502888933884670000004250980829415709061_" gradientUnits="userSpaceOnUse" x1="746.0632" y1="406.7137" x2="804.48" y2="461.4214">
			<stop  offset="1.400000e-07" style="stop-color:#F15A29"/>
			<stop  offset="1" style="stop-color:#DE0B00"/>
		</linearGradient>
		<path style="fill:url(#SVGID_00000122693502888933884670000004250980829415709061_);" d="M806.4,464.09l-0.01-27.62h-9.15
			c-7.37,0-14.44-2.93-19.65-8.14l-3.62-3.62c-5.21-5.21-8.14-12.28-8.14-19.65h-18.47v18.46c7.37,0,14.44,2.93,19.65,8.14
			l3.62,3.62c5.21,5.21,8.14,12.29,8.14,19.66l0,9.15H806.4z"/>
		<path d="M764.72,441.21l-3.67-3.57c-2.62-2.62-5.98-4.51-9.55-5.24l-27.12,15.67c-2.86-1.84-6.25-2.94-9.91-2.94
			c-3.66,0-7.04,1.1-9.91,2.94l-40.61-23.48c0-0.11,0.03-0.21,0.03-0.33c0-7.09-4.06-13.16-9.94-16.22v-47.32
			c5.88-3.06,9.94-9.14,9.94-16.22c0-0.37-0.09-0.71-0.11-1.07l40.67-23.51c2.86,1.85,6.26,2.95,9.92,2.95
			c3.67,0,7.06-1.1,9.92-2.95l40.67,23.51c-0.02,0.36-0.11,0.71-0.11,1.07c0,7.09,4.06,13.16,9.94,16.22v48.91
			c0.73,3.46,2.52,6.61,5.03,9.13l3.57,3.67c2.31,2.31,5.14,3.99,8.18,4.72v-66.4c5.91-3.05,9.99-9.14,9.99-16.25
			c0-10.14-8.22-18.36-18.36-18.36c-3.58,0-6.9,1.07-9.73,2.84l-40.84-23.64c0.01-0.28,0.09-0.55,0.09-0.84
			c0-10.14-8.22-18.36-18.36-18.36c-10.14,0-18.36,8.22-18.36,18.36c0,0.29,0.07,0.56,0.08,0.84l-40.84,23.64
			c-2.83-1.78-6.14-2.84-9.73-2.84c-10.14,0-18.36,8.22-18.36,18.36c0,7.11,4.08,13.2,9.99,16.25v47.26
			c-5.91,3.05-9.99,9.14-9.99,16.25c0,10.14,8.22,18.36,18.36,18.36c3.84,0,7.4-1.18,10.34-3.2l40.22,23.23
			c-0.01,0.28-0.08,0.55-0.08,0.83c0,10.14,8.22,18.36,18.36,18.36c10.14,0,18.36-8.22,18.36-18.36c0-0.29-0.07-0.56-0.09-0.84
			l33.65-19.44C765.88,442.47,765.35,441.84,764.72,441.21z"/>
	</g>
</g>
</svg>
