<svg id="fastgql" data-name="fastgql" xmlns="http://www.w3.org/2000/svg" xmlns:xlink="http://www.w3.org/1999/xlink" viewBox="0 0 509.22 116.93"><defs><style>.cls-1{fill:#fff;}.cls-2{opacity:0.8;}.cls-3{fill:url(#radial-gradient);}.cls-4{fill:url(#radial-gradient-6);}.cls-5{fill:url(#radial-gradient-7);}.cls-6{fill:url(#radial-gradient-8);}.cls-7{fill:url(#radial-gradient-9);}.cls-8{fill:url(#radial-gradient-10);}</style><radialGradient id="radial-gradient" cx="394.36" cy="18.99" r="81.4" gradientUnits="userSpaceOnUse"><stop offset="0" stop-color="aqua"/><stop offset="1" stop-color="#29abe2"/></radialGradient><radialGradient id="radial-gradient-6" cx="1.79" cy="26.45" r="70.81" gradientUnits="userSpaceOnUse"><stop offset="0" stop-color="#333"/><stop offset="1" stop-color="#ccc" stop-opacity="0"/></radialGradient><radialGradient id="radial-gradient-7" cx="104.42" cy="63.25" r="55.4" xlink:href="#radial-gradient-6"/><radialGradient id="radial-gradient-8" cx="178.63" cy="58.89" r="56.09" xlink:href="#radial-gradient-6"/><radialGradient id="radial-gradient-9" cx="105.02" cy="62.35" r="58.66" xlink:href="#radial-gradient-6"/><radialGradient id="radial-gradient-10" cx="185.86" cy="16.89" r="67.93" xlink:href="#radial-gradient-6"/></defs><title>1 svg</title><path class="cls-1" d="M17.86,29.06V35h14.7v2.5a14.69,14.69,0,0,1-14.7,14.68V99H0V29.06Q0,14.38,8.18,6.77T32.56.11V17.29Q17.88,16.17,17.86,29.06Z"/><path class="cls-1" d="M91.89,29.75h17.87V99H91.89V90.84q-8,10.11-22.58,10.11-13.86,0-23.76-10.6t-9.9-26q0-15.37,9.9-26t23.76-10.6q14.53,0,22.58,10.11Zm-33,48.69a18.44,18.44,0,0,0,13.71,5.47,18.7,18.7,0,0,0,13.79-5.47,19.06,19.06,0,0,0,5.47-14.06,19.07,19.07,0,0,0-5.47-14.06,18.7,18.7,0,0,0-13.79-5.47,18.44,18.44,0,0,0-13.71,5.47q-5.4,5.48-5.4,14.06T58.92,78.44Z"/><path class="cls-1" d="M140.14,49.42q0,2.78,3.67,4.5a48.83,48.83,0,0,0,8.94,3,95.26,95.26,0,0,1,10.52,3.32A20.47,20.47,0,0,1,172.21,67a18.63,18.63,0,0,1,3.67,11.78q0,10.67-8,16.41T148,101Q126.7,101,119,84.47l15.51-8.73q3,9,13.58,9,9.56,0,9.55-5.95,0-2.78-3.67-4.51A52.19,52.19,0,0,0,145,71.17a93.78,93.78,0,0,1-10.53-3.46,21.6,21.6,0,0,1-8.93-6.58,17.27,17.27,0,0,1-3.67-11.29q0-10.26,7.54-16.14t18.77-5.89a31.37,31.37,0,0,1,15.38,3.81,27.82,27.82,0,0,1,10.94,10.87l-15.23,8.32a11.41,11.41,0,0,0-11.09-7.07,10.1,10.1,0,0,0-5.74,1.53A4.73,4.73,0,0,0,140.14,49.42Z"/><path class="cls-1" d="M202.26,46.93V75.74c0,2.4.59,4.15,1.8,5.27a8.24,8.24,0,0,0,5.25,1.86,78.27,78.27,0,0,0,8.6-.06V99q-18.4,2.08-26-3.46t-7.55-19.81v-60l17.87-5.41V29.74h15.65v1.53A15.65,15.65,0,0,1,202.26,46.93Z"/><path class="cls-1" d="M284.68,50.94h42.66v5.82q0,19-13,31.52t-34.49,12.53q-22.17,0-36.64-14.61T228.72,50.53q0-21.06,14.47-35.67T279.56.24a48.62,48.62,0,0,1,24.65,6.45,47.19,47.19,0,0,1,13.14,11,6.34,6.34,0,0,1-1.71,9.47,6.23,6.23,0,0,1-3.18.88,6.48,6.48,0,0,1-5-2.47,32.55,32.55,0,0,0-9.51-8,36.73,36.73,0,0,0-18.49-4.77q-16.64,0-27.3,10.87T241.46,50.53q0,16.08,10.73,26.88T280,88.21q14.55,0,23.55-7.13a29.08,29.08,0,0,0,10.94-18.5H284.68a5.82,5.82,0,0,1,0-11.64Z"/><path class="cls-1" d="M438.3,50.53a50,50,0,0,1-7.86,27,6.24,6.24,0,0,1-5.3,2.92A6.16,6.16,0,0,1,419.59,77a6.3,6.3,0,0,1,.34-6.28,37.78,37.78,0,0,0-34.33-58A37.82,37.82,0,0,0,382.67,88,6.23,6.23,0,0,1,381,100.33a50.29,50.29,0,1,1,57.27-49.8Z"/><path class="cls-1" d="M509.22,92.92a6.09,6.09,0,0,1-6.1,6.09H454.5V8.49A6.45,6.45,0,0,1,460.94,2a6.45,6.45,0,0,1,6.44,6.45V86.82h35.74A6.1,6.1,0,0,1,509.22,92.92Z"/><g class="cls-2"><path class="cls-3" d="M412.1,113.76a4.38,4.38,0,0,1-2.39-7.83l28.4-22a4.38,4.38,0,1,1,5.36,6.92l-28.4,22A4.32,4.32,0,0,1,412.1,113.76Z"/><path class="cls-3" d="M377.1,78.13a4.37,4.37,0,0,1-2.27-7.91l19.61-14.17a4.38,4.38,0,0,1,5.13,7.1L380,77.32A4.37,4.37,0,0,1,377.1,78.13Z"/><path class="cls-3" d="M412.1,113.76a4.37,4.37,0,0,1-3.89-3.07l-15.39-49.8a4.38,4.38,0,0,1,8.37-2.59l15.39,49.8a4.37,4.37,0,0,1-4.48,5.66Z"/></g><circle class="cls-3" cx="396.86" cy="61.75" r="10.34"/><circle class="cls-3" cx="412.5" cy="107.79" r="9.14"/><path class="cls-4" d="M17.87,52.18V99H0V65.39A13.21,13.21,0,0,1,13.21,52.18Z"/><path class="cls-5" d="M91.89,64.38a19.06,19.06,0,0,1-5.47,14.06,18.7,18.7,0,0,1-13.79,5.47,18.44,18.44,0,0,1-13.71-5.47q-5.4-5.47-5.4-14.06t5.4-14.06a18.44,18.44,0,0,1,13.71-5.47,18.7,18.7,0,0,1,13.79,5.47,19.07,19.07,0,0,1,5.47,14.06V37.92q-8-10.11-22.58-10.11-13.86,0-23.76,10.6t-9.9,26q0,15.38,9.9,26T69.31,101q14.53,0,22.58-10.11Z"/><path class="cls-6" d="M153.92,74.28q3.68,1.74,3.67,4.51,0,6-9.55,5.95-10.53,0-13.58-9L119,84.47Q126.71,101,148,101q11.91,0,19.87-5.75C176,81.46,153.92,74.28,153.92,74.28Z"/><path class="cls-7" d="M143.81,53.92q-3.67-1.72-3.67-4.5a4.73,4.73,0,0,1,2.29-4.15,10.1,10.1,0,0,1,5.74-1.53,11.41,11.41,0,0,1,11.09,7.07l15.23-8.32a27.82,27.82,0,0,0-10.94-10.87,31.37,31.37,0,0,0-15.38-3.81q-11.22,0-18.77,5.89C122,46.37,143.81,53.92,143.81,53.92Z"/><path class="cls-8" d="M217.91,82.82V99q-18.42,2.08-26-3.46c-5.05-3.69-7.55-10.31-7.55-19.82V60a13.11,13.11,0,0,1,13.12-13.11h4.74v28.8c0,2.4.6,4.16,1.82,5.28a8.14,8.14,0,0,0,5.25,1.85A80,80,0,0,0,217.91,82.82Z"/><path class="cls-1" d="M17.86,29.06V35h14.7v2.5a14.69,14.69,0,0,1-14.7,14.68V99H0V29.06Q0,14.38,8.18,6.77T32.56.11V17.29Q17.88,16.17,17.86,29.06Z"/><path class="cls-1" d="M91.89,29.75h17.87V99H91.89V90.84q-8,10.11-22.58,10.11-13.86,0-23.76-10.6t-9.9-26q0-15.37,9.9-26t23.76-10.6q14.53,0,22.58,10.11Zm-33,48.69a18.44,18.44,0,0,0,13.71,5.47,18.7,18.7,0,0,0,13.79-5.47,19.06,19.06,0,0,0,5.47-14.06,19.07,19.07,0,0,0-5.47-14.06,18.7,18.7,0,0,0-13.79-5.47,18.44,18.44,0,0,0-13.71,5.47q-5.4,5.48-5.4,14.06T58.92,78.44Z"/><path class="cls-1" d="M140.14,49.42q0,2.78,3.67,4.5a48.83,48.83,0,0,0,8.94,3,95.26,95.26,0,0,1,10.52,3.32A20.47,20.47,0,0,1,172.21,67a18.63,18.63,0,0,1,3.67,11.78q0,10.67-8,16.41T148,101Q126.7,101,119,84.47l15.51-8.73q3,9,13.58,9,9.56,0,9.55-5.95,0-2.78-3.67-4.51A52.19,52.19,0,0,0,145,71.17a93.78,93.78,0,0,1-10.53-3.46,21.6,21.6,0,0,1-8.93-6.58,17.27,17.27,0,0,1-3.67-11.29q0-10.26,7.54-16.14t18.77-5.89a31.37,31.37,0,0,1,15.38,3.81,27.82,27.82,0,0,1,10.94,10.87l-15.23,8.32a11.41,11.41,0,0,0-11.09-7.07,10.1,10.1,0,0,0-5.74,1.53A4.73,4.73,0,0,0,140.14,49.42Z"/><path class="cls-1" d="M202.26,46.93V75.74c0,2.4.59,4.15,1.8,5.27a8.24,8.24,0,0,0,5.25,1.86,78.27,78.27,0,0,0,8.6-.06V99q-18.4,2.08-26-3.46t-7.55-19.81v-60l17.87-5.41V29.74h15.65v1.53A15.65,15.65,0,0,1,202.26,46.93Z"/><path class="cls-1" d="M284.68,50.94h42.66v5.82q0,19-13,31.52t-34.49,12.53q-22.17,0-36.64-14.61T228.72,50.53q0-21.06,14.47-35.67T279.56.24a48.62,48.62,0,0,1,24.65,6.45,47.19,47.19,0,0,1,13.14,11,6.34,6.34,0,0,1-1.71,9.47,6.23,6.23,0,0,1-3.18.88,6.48,6.48,0,0,1-5-2.47,32.55,32.55,0,0,0-9.51-8,36.73,36.73,0,0,0-18.49-4.77q-16.64,0-27.3,10.87T241.46,50.53q0,16.08,10.73,26.88T280,88.21q14.55,0,23.55-7.13a29.08,29.08,0,0,0,10.94-18.5H284.68a5.82,5.82,0,0,1,0-11.64Z"/><path class="cls-1" d="M438.3,50.53a50,50,0,0,1-7.86,27,6.24,6.24,0,0,1-5.3,2.92A6.16,6.16,0,0,1,419.59,77a6.3,6.3,0,0,1,.34-6.28,37.78,37.78,0,0,0-34.33-58A37.82,37.82,0,0,0,382.67,88,6.23,6.23,0,0,1,381,100.33a50.29,50.29,0,1,1,57.27-49.8Z"/><path class="cls-1" d="M509.22,92.92a6.09,6.09,0,0,1-6.1,6.09H454.5V8.49A6.45,6.45,0,0,1,460.94,2a6.45,6.45,0,0,1,6.44,6.45V86.82h35.74A6.1,6.1,0,0,1,509.22,92.92Z"/><g class="cls-2"><path class="cls-3" d="M412.1,113.76a4.38,4.38,0,0,1-2.39-7.83l28.4-22a4.38,4.38,0,1,1,5.36,6.92l-28.4,22A4.32,4.32,0,0,1,412.1,113.76Z"/><path class="cls-3" d="M377.1,78.13a4.37,4.37,0,0,1-2.27-7.91l19.61-14.17a4.38,4.38,0,0,1,5.13,7.1L380,77.32A4.37,4.37,0,0,1,377.1,78.13Z"/><path class="cls-3" d="M412.1,113.76a4.37,4.37,0,0,1-3.89-3.07l-15.39-49.8a4.38,4.38,0,0,1,8.37-2.59l15.39,49.8a4.37,4.37,0,0,1-4.48,5.66Z"/></g><circle class="cls-3" cx="396.86" cy="61.75" r="10.34"/><circle class="cls-3" cx="412.5" cy="107.79" r="9.14"/><path class="cls-4" d="M17.87,52.18V99H0V65.39A13.21,13.21,0,0,1,13.21,52.18Z"/><path class="cls-5" d="M91.89,64.38a19.06,19.06,0,0,1-5.47,14.06,18.7,18.7,0,0,1-13.79,5.47,18.44,18.44,0,0,1-13.71-5.47q-5.4-5.47-5.4-14.06t5.4-14.06a18.44,18.44,0,0,1,13.71-5.47,18.7,18.7,0,0,1,13.79,5.47,19.07,19.07,0,0,1,5.47,14.06V37.92q-8-10.11-22.58-10.11-13.86,0-23.76,10.6t-9.9,26q0,15.38,9.9,26T69.31,101q14.53,0,22.58-10.11Z"/><path class="cls-6" d="M153.92,74.28q3.68,1.74,3.67,4.51,0,6-9.55,5.95-10.53,0-13.58-9L119,84.47Q126.71,101,148,101q11.91,0,19.87-5.75C176,81.46,153.92,74.28,153.92,74.28Z"/><path class="cls-7" d="M143.81,53.92q-3.67-1.72-3.67-4.5a4.73,4.73,0,0,1,2.29-4.15,10.1,10.1,0,0,1,5.74-1.53,11.41,11.41,0,0,1,11.09,7.07l15.23-8.32a27.82,27.82,0,0,0-10.94-10.87,31.37,31.37,0,0,0-15.38-3.81q-11.22,0-18.77,5.89C122,46.37,143.81,53.92,143.81,53.92Z"/><path class="cls-8" d="M217.91,82.82V99q-18.42,2.08-26-3.46c-5.05-3.69-7.55-10.31-7.55-19.82V60a13.11,13.11,0,0,1,13.12-13.11h4.74v28.8c0,2.4.6,4.16,1.82,5.28a8.14,8.14,0,0,0,5.25,1.85A80,80,0,0,0,217.91,82.82Z"/></svg>